<?xml version="1.0" standalone="no"?>
<!DOCTYPE svg PUBLIC "-//W3C//DTD SVG 20010904//EN"
 "http://www.w3.org/TR/2001/REC-SVG-20010904/DTD/svg10.dtd">
<svg version="1.0" xmlns="http://www.w3.org/2000/svg"
 width="1500.000000pt" height="393.000000pt" viewBox="0 0 1500.000000 393.000000"
 preserveAspectRatio="xMidYMid meet">

<g transform="translate(0.000000,393.000000) scale(0.100000,-0.100000)"
fill="#000000" stroke="none">
<path d="M2213 3409 c-10 -10 -13 -81 -13 -288 0 -152 4 -282 8 -288 5 -9 56
-16 148 -23 149 -10 251 -26 381 -59 558 -143 1044 -542 1299 -1068 110 -225
174 -469 196 -741 6 -81 16 -150 22 -154 6 -4 135 -8 287 -8 236 0 278 2 289
15 10 12 11 45 6 138 -31 542 -204 1022 -527 1454 -94 126 -376 408 -502 502
-302 225 -642 383 -1002 466 -195 45 -568 79 -592 54z m357 -74 c806 -102
1535 -613 1919 -1346 169 -322 274 -708 283 -1044 l3 -100 -237 -3 -237 -2 -5
42 c-3 24 -8 81 -11 128 -3 47 -17 141 -31 210 -106 528 -420 1000 -866 1300
-316 213 -629 318 -1060 356 l-68 6 0 232 c0 128 3 236 7 240 9 9 156 0 303
-19z"/>
<path d="M2213 2189 c-10 -10 -13 -69 -13 -225 0 -157 3 -214 13 -221 6 -6 50
-13 97 -16 232 -16 476 -143 629 -329 125 -152 211 -372 211 -543 0 -28 5 -56
12 -63 9 -9 72 -12 224 -12 175 0 214 3 224 15 27 32 -15 324 -67 470 -148
412 -473 731 -880 864 -159 52 -424 87 -450 60z m265 -75 c407 -73 773 -358
956 -745 25 -52 57 -134 71 -184 25 -85 54 -258 55 -317 l0 -28 -174 0 -173 0
-7 75 c-19 212 -125 431 -285 591 -152 153 -340 245 -566 277 l-90 13 -3 159
c-1 88 0 165 3 173 6 16 70 12 213 -14z"/>
<path d="M2135 1097 c-131 -54 -198 -149 -199 -282 -1 -276 341 -406 523 -199
49 56 71 118 71 204 0 114 -59 208 -164 262 -50 26 -184 35 -231 15z m227 -82
c69 -49 101 -104 106 -181 5 -80 -14 -137 -64 -187 -99 -99 -242 -100 -340 -1
-97 96 -94 244 8 341 51 49 93 64 175 60 61 -2 78 -7 115 -32z"/>
</g>
</svg>
